<?xml version="1.0"?>
<svg version="1.1" xmlns="http://www.w3.org/2000/svg" width="233px" height="70px" style=""><path fill="#" d="M0,27.20703125q0-0.2734375,0.380859375-0.419921875t0.498046875-0.146484375l0.72265625-0.1171875q0.72265625-0.1171875,1.46484375-0.205078125t1.4453125-0.166015625q2.48046875-0.3125,4.9609375-0.615234375t5-0.302734375q0.1953125,0,0.537109375,0.01953125t0.68359375,0.107421875t0.5859375,0.244140625t0.244140625,0.4296875q0,0.1953125-0.185546875,0.341796875t-0.439453125,0.224609375t-0.517578125,0.09765625t-0.419921875,0.01953125l-0.341796875,0t-0.341796875-0.078125q-1.03515625,0-2.041015625,0.09765625t-2.041015625,0.17578125q0.2734375,0.3125,0.29296875,0.87890625t0.0390625,0.9765625q0,6.9140625,0.09765625,13.75t0.17578125,13.80859375l0,0.0390625q-0.64453125,0.56640625-1.103515625,0.72265625t-0.927734375,0.15625q-0.44921875,0-0.908203125-0.166015625t-1.103515625-0.712890625l0-0.0390625l0.15625-15.33203125q0-1.5234375-0.0390625-3.359375t-0.0390625-3.720703125t0.05859375-3.642578125t0.3125-3.06640625q-1.15234375,0.1171875-2.44140625,0.3515625q-1.11328125,0.1953125-2.12890625,0.1953125l-0.3515625,0q-0.078125,0-0.458984375,0.01953125t-0.78125-0.01953125t-0.72265625-0.15625t-0.322265625-0.390625z M19.3099609375,48.76953125q0-4.23828125,0.380859375-8.486328125t1.591796875-8.369140625q0.3515625-1.23046875,0.91796875-2.431640625t1.38671875-2.138671875t1.953125-1.5234375t2.6953125-0.5859375l0.41015625,0.0390625q1.6796875,0.234375,2.48046875,1.357421875t0.80078125,2.802734375q0,0.44921875-0.107421875,1.123046875t-0.341796875,1.298828125t-0.634765625,1.064453125t-1.005859375,0.439453125q-0.2734375-0.0390625-0.498046875-0.09765625t-0.419921875-0.25390625q0.3125-0.68359375,0.556640625-1.42578125t0.244140625-1.69921875q0-0.3515625-0.05859375-0.8984375t-0.224609375-1.083984375t-0.439453125-0.9375t-0.76171875-0.400390625q-1.23046875,0-2.0703125,1.376953125t-1.40625,3.515625t-0.83984375,4.7265625t-0.419921875,5t-0.166015625,4.35546875t-0.01953125,2.744140625q0,0.9375-0.01953125,2.0703125l0,0.25390625q0.01953125,0.99609375,0.13671875,1.89453125q0.15625,1.015625,0.60546875,1.7578125t1.40625,0.859375q0.29296875,0.0390625,0.56640625,0.0390625q1.1328125,0,2.05078125-0.64453125q1.1328125-0.80078125,2.01171875-2.080078125t1.5625-2.8125t1.259765625-2.900390625t1.123046875-2.265625t1.1328125-0.8984375q0.1953125,0,0.5859375,0.078125t0.390625,0.37109375q0,0.078125-0.0390625,0.21484375t-0.09765625,0.21484375q-0.52734375,2.0703125-1.337890625,4.296875t-2.0703125,4.052734375t-3.0859375,2.978515625t-4.384765625,1.15234375q-1.8359375,0-2.978515625-0.693359375t-1.7578125-1.85546875t-0.83984375-2.626953125t-0.224609375-2.96875z M47.7833984375,27.431640625q-0.048828125-0.595703125,0.078125-1.03515625t0.5078125-0.72265625t1.220703125-0.283203125l3.14453125,0q0.64453125,0,1.689453125,0.068359375t2.24609375,0.205078125t2.392578125,0.419921875t2.177734375,0.703125t1.6015625,1.03515625t0.615234375,1.455078125q0,1.19140625-0.693359375,2.236328125t-1.73828125,1.884765625t-2.20703125,1.494140625t-2.080078125,1.181640625q3.6328125,0.80078125,5.68359375,3.3203125t2.05078125,6.2890625q0,1.9921875-0.76171875,3.935546875t-2.080078125,3.505859375t-3.125,2.51953125t-3.876953125,0.95703125q-0.2734375,0-0.615234375-0.05859375t-0.625-0.185546875t-0.48828125-0.361328125t-0.205078125-0.60546875q0-1.71875,1.85546875-1.71875q0.3125,0,0.732421875,0.087890625t0.654296875,0.361328125q1.07421875-0.44921875,1.962890625-1.42578125t1.50390625-2.177734375t0.95703125-2.51953125t0.341796875-2.392578125q0-1.2890625-0.380859375-2.626953125t-1.103515625-2.48046875t-1.77734375-1.923828125t-2.421875-0.9765625q-0.3515625-0.0390625-0.771484375-0.05859375l-0.83984375-0.0390625t-0.8203125-0.1171875t-0.693359375-0.3125q0.15625,3.2421875,0.400390625,6.46484375t0.654296875,6.46484375q0.15625,0.15625,0.21484375,0.458984375t0.09765625,0.64453125t0.0390625,0.654296875l0,0.52734375q0,0.3515625-0.234375,0.576171875t-0.556640625,0.361328125t-0.68359375,0.17578125t-0.634765625,0.0390625q-0.87890625,0-1.34765625-0.234375t-0.6640625-0.68359375t-0.25390625-1.025390625t-0.09765625-1.259765625q-0.52734375-5.44921875-0.76171875-10.78125t-0.234375-10.78125q0-0.64453125-0.048828125-1.240234375z M51.3869140625,26.6015625q0,2.40234375,0.15625,4.814453125t0.2734375,4.814453125q0.87890625-0.52734375,2.3046875-1.240234375t2.763671875-1.572265625t2.294921875-1.89453125t0.95703125-2.24609375q0-0.95703125-1.1328125-1.455078125t-2.63671875-0.7421875t-2.939453125-0.302734375t-2.041015625-0.17578125z M68.48984375,44.9609375l0-3.0859375q0-3.203125,0.107421875-6.357421875t0.185546875-6.357421875q0-0.60546875-0.0390625-1.34765625q-0.01953125-0.21484375-0.01953125-0.41015625q0-0.48828125,0.078125-0.95703125q0.09765625-0.625,0.478515625-1.07421875t1.259765625-0.44921875q0.72265625,0,1.103515625,0.15625t0.537109375,0.458984375t0.17578125,0.76171875t0.01953125,1.064453125q0,3.2421875-0.078125,6.50390625q-0.05859375,2.16796875-0.05859375,4.3359375q0,1.09375,0.01953125,2.1875q0.0390625,3.2421875,0.302734375,6.484375t0.888671875,6.40625q1.953125-0.078125,3.90625-0.1953125t3.90625-0.1171875q0.1953125,0,0.556640625,0.0390625t0.72265625,0.13671875t0.615234375,0.25390625t0.25390625,0.44921875q0,0.1953125-0.17578125,0.33203125t-0.33203125,0.21484375l-0.0390625,0q-0.3125,0.15625-1.240234375,0.302734375t-2.109375,0.224609375t-2.48046875,0.13671875t-2.44140625,0.09765625t-1.982421875,0.05859375t-1.03515625,0.01953125l-0.17578125,0q-0.46875,0-1.0546875-0.15625q-0.703125-0.1953125-0.87890625-0.76171875q-0.3515625-1.4453125-0.556640625-2.998046875t-0.3125-3.154296875t-0.107421875-3.203125z M86.2177734375,54.7265625q0.078125-4.08203125,0.341796875-8.14453125t0.458984375-8.14453125q0.0390625-1.5625,0.0390625-2.841796875t0.126953125-2.216796875t0.46875-1.435546875t1.142578125-0.498046875q0.68359375,0,1.03515625,0.1953125t0.537109375,0.498046875t0.224609375,0.68359375t0.0390625,0.771484375q0,0.56640625,0.0390625,1.123046875t0.0390625,1.123046875q0,4.12109375-0.224609375,8.22265625t-0.224609375,8.26171875q0,0.60546875,0.01953125,1.220703125t0.01953125,1.259765625q0,0.234375-0.21484375,0.390625t-0.537109375,0.263671875t-0.68359375,0.146484375t-0.595703125,0.0390625q-0.2734375,0-0.615234375-0.0390625t-0.6640625-0.166015625t-0.546875-0.302734375t-0.224609375-0.41015625z M87.3115234375,28.2421875q0-0.1953125,0.05859375-0.439453125t0.13671875-0.439453125q0.0390625-0.234375,0.1171875-0.80078125t0.283203125-1.103515625t0.56640625-0.95703125t1.025390625-0.419921875l0.37109375,0q0.3125,0.078125,0.634765625,0.1953125t0.322265625,0.56640625q0,0.1953125-0.01953125,0.37109375t-0.05859375,0.390625q-0.15625,1.15234375-0.302734375,1.81640625t-0.341796875,1.005859375t-0.498046875,0.439453125t-0.771484375,0.13671875q-0.15625,0-0.419921875-0.01953125t-0.5078125-0.09765625t-0.419921875-0.244140625t-0.17578125-0.400390625z M94.824609375,29.43359375q0-0.234375,0.224609375-0.3515625t0.48828125-0.17578125t0.478515625-0.05859375l0.21484375,0q0.68359375,0,0.986328125,0.3125t0.732421875,0.80078125q2.9296875,4.23828125,5.37109375,8.720703125t4.70703125,9.072265625q0.1953125-5.3515625,0.400390625-10.771484375t0.517578125-10.751953125q0-0.234375,0.224609375-0.390625t0.5078125-0.234375t0.576171875-0.09765625t0.44921875-0.01953125q0.234375,0,0.517578125,0.01953125t0.56640625,0.1171875t0.46875,0.234375t0.185546875,0.37109375q0.078125,0.83984375,0.087890625,1.689453125t0.009765625,1.689453125q0,6.2890625-0.2734375,12.32421875t-0.2734375,12.1875l0,1.40625q0,0.078125-0.078125,0.234375q0.0390625,0.15625,0.1171875,0.341796875t0.078125,0.263671875q0,0.3125-0.322265625,0.46875t-0.703125,0.244140625t-0.673828125,0.087890625t-0.21484375,0q-0.99609375,0-1.6796875-0.546875t-0.68359375-1.30859375q-1.4453125-3.2421875-2.880859375-6.435546875t-2.998046875-6.357421875q-0.99609375-1.9921875-2.001953125-3.994140625t-2.158203125-3.876953125q0.0390625,0.0390625,0.0390625,0.1171875q0.1953125,1.953125,0.419921875,3.896484375t0.341796875,3.896484375q0.078125,1.6796875,0.17578125,3.3984375t0.3125,3.3984375q0,0.64453125-0.400390625,0.8203125t-0.927734375,0.17578125q-0.44921875,0-0.849609375-0.1171875t-0.478515625-0.5859375q0-1.796875-0.13671875-3.818359375t-0.25390625-4.072265625q-0.1953125-2.71484375-0.517578125-5.517578125t-0.322265625-5.478515625q0-0.1171875,0.01953125-0.244140625t0.01953125-0.283203125q-0.1171875-0.1953125-0.263671875-0.41015625t-0.146484375-0.390625z M116.5173828125,42.71484375q0-3.359375,0.185546875-6.640625t0.458984375-6.640625q0.078125-0.87890625,0.09765625-1.69921875t0.185546875-1.435546875t0.5859375-0.9765625t1.298828125-0.361328125q0.56640625,0,1.181640625,0.1953125t0.615234375,0.91796875q0,2.71484375-0.224609375,5.341796875t-0.302734375,5.224609375q2.12890625-2.40234375,4.55078125-4.482421875t5.13671875-4.111328125q0.390625-0.2734375,0.99609375-0.29296875q0.1953125,0,0.341796875,0.01953125t0.302734375,0.05859375q0.1953125,0.078125,0.400390625,0.185546875t0.205078125,0.302734375q0,0.15625-0.17578125,0.2734375q-2.03125,1.640625-4.013671875,3.33984375t-3.779296875,3.6328125q0.234375,0.44921875,0.400390625,0.83984375t0.361328125,0.83984375q1.640625,3.88671875,2.802734375,7.958984375t2.470703125,8.076171875q0.1171875,0.44921875,0.341796875,0.927734375t0.419921875,0.95703125t0.341796875,0.8984375t0.146484375,0.693359375q0,0.3515625-0.224609375,0.556640625t-0.517578125,0.322265625t-0.634765625,0.15625t-0.634765625,0.0390625q-0.68359375,0-1.220703125-0.1953125t-0.849609375-0.87890625q-1.4453125-4.609375-2.783203125-9.21875t-2.705078125-9.296875q-0.44921875,0.44921875-0.8984375,1.123046875t-0.8203125,1.240234375q0,2.9296875,0.13671875,5.8203125t0.46875,5.8203125q0.078125,0.83984375,0.263671875,1.6796875t0.185546875,1.71875q0,0.64453125-0.6640625,0.8984375t-1.46484375,0.25390625q-0.87890625,0-1.318359375-0.17578125t-0.625-0.458984375t-0.224609375-0.625t-0.1171875-0.654296875q-0.44921875-3.0859375-0.56640625-6.103515625t-0.1171875-6.064453125z M136.53046875,51.2890625q0-0.68359375,0.46875-0.869140625t1.015625-0.185546875q0.95703125,0,1.62109375,0.859375t1.259765625,1.884765625t1.181640625,1.884765625t1.38671875,0.859375q0.60546875,0,1.103515625-0.302734375t0.859375-0.76171875t0.556640625-1.03515625t0.1953125-1.142578125q0-1.484375-0.595703125-3.06640625t-1.5234375-3.26171875t-1.962890625-3.4375t-1.953125-3.57421875t-1.5234375-3.701171875t-0.60546875-3.798828125q0-2.87109375,1.71875-4.453125t4.53125-1.58203125q0.95703125,0,1.93359375,0.2734375t1.796875,0.8203125t1.337890625,1.34765625t0.517578125,1.875q0,0.3515625-0.517578125,0.458984375t-0.751953125,0.107421875q-0.3515625,0-0.76171875-0.087890625t-0.52734375-0.478515625t-0.33203125-0.8984375t-0.537109375-0.947265625t-0.76171875-0.76171875t-0.966796875-0.322265625q-0.87890625,0-1.494140625,0.361328125t-0.99609375,0.966796875t-0.56640625,1.357421875t-0.185546875,1.552734375q0,1.875,0.64453125,3.779296875t1.6015625,3.7890625t2.080078125,3.720703125t2.080078125,3.57421875t1.6015625,3.3984375t0.64453125,3.14453125q0,1.328125-0.625,2.24609375t-1.58203125,1.494140625t-2.119140625,0.83984375t-2.275390625,0.263671875q-1.19140625,0-2.44140625-0.478515625t-2.24609375-1.318359375t-1.640625-1.962890625t-0.64453125-2.431640625z"/><path fill="#" d="M159.5361328125,43.05078125q0.017578125-0.369140625,0.017578125-0.720703125q0-1.2744140625,0.09228515625-2.5400390625t0.12744140625-2.5400390625q0.052734375-1.458984375,0.0966796875-2.8916015625t0.17578125-2.8828125q0.03515625-0.3603515625,0.20654296875-0.47021484375t0.51416015625-0.10986328125q0.158203125,0,0.421875,0.0615234375t0.263671875,0.298828125q0.123046875,0.017578125,0.24609375,0.017578125q0.1845703125,0,0.3779296875-0.03515625q0.31640625-0.052734375,0.64599609375-0.11865234375t0.65478515625-0.12744140625t0.6240234375-0.0615234375q0.0703125,0,0.19775390625,0.0087890625t0.2548828125,0.052734375t0.21533203125,0.10986328125t0.087890625,0.17138671875t-0.20654296875,0.18896484375t-0.54052734375,0.14501953125t-0.720703125,0.10546875t-0.755859375,0.07470703125t-0.65478515625,0.04833984375t-0.40869140625,0.017578125l-0.017578125,3.3046875l0.017578125,1.6435546875q0.2724609375,0,0.8173828125-0.017578125q0.2197265625-0.0087890625,0.439453125-0.0087890625q0.333984375,0,0.685546875,0.017578125q0.580078125,0.0263671875,1.0458984375,0.10546875t0.5888671875,0.28125q0,0.123046875-0.12744140625,0.19775390625t-0.28564453125,0.10986328125t-0.32080078125,0.0439453125t-0.23291015625,0.0087890625q-0.650390625,0-1.3095703125-0.0263671875t-1.30078125-0.10546875q0,1.0810546875-0.05712890625,2.14453125t-0.05712890625,2.14453125q0,0.4658203125,0.0087890625,0.91845703125t0.10546875,0.90087890625q0.2373046875-0.017578125,0.51416015625-0.0439453125t0.5625-0.06591796875t0.54931640625-0.06591796875t0.45703125-0.0263671875q0.10546875,0,0.28564453125,0.0263671875t0.369140625,0.087890625t0.3251953125,0.15380859375t0.13623046875,0.21533203125q0,0.140625-0.25927734375,0.25048828125t-0.66357421875,0.17578125t-0.88330078125,0.09228515625t-0.92724609375,0.03515625t-0.80859375,0.0087890625l-0.509765625,0q-0.4833984375,0-0.70751953125-0.18017578125t-0.31201171875-0.47021484375q-0.0703125-0.2373046875-0.0615234375-0.5361328125l0-0.123046875z M166.86331054687,42.576171875q-0.0087890625-0.263671875-0.0087890625-0.52734375q0-0.826171875,0.087890625-1.6611328125q0.10546875-1.107421875,0.140625-2.1796875q0.03515625-1.2568359375,0.10546875-2.6103515625q0.0439453125-0.73828125,0.0439453125-1.458984375q0-0.5888671875-0.0263671875-1.1689453125q0.087890625-0.2021484375,0.23291015625-0.2724609375t0.36474609375-0.0703125q0.10546875,0,0.22412109375,0.017578125t0.20654296875,0.087890625q0.123046875,0.017578125,0.30322265625,0.03515625t0.27685546875,0.10546875q0.03515625,0.052734375,0.18017578125,0.3603515625t0.3427734375,0.7470703125t0.4130859375,0.95361328125t0.4130859375,0.9755859375t0.3427734375,0.81298828125t0.18017578125,0.439453125q0.826171875-1.494140625,1.6171875-3.07177734375t1.7314453125-2.97509765625q0.087890625-0.123046875,0.30322265625-0.18017578125t0.35595703125-0.05712890625q0.3779296875,0,0.54931640625,0.18017578125t0.22412109375,0.46142578125q0.03515625,0.17578125,0.0439453125,0.3779296875q0.0087890625,0.10546875-0.0087890625,0.2197265625q-0.03515625,0.3251953125-0.03515625,0.615234375q0,2.0478515625-0.140625,4.06494140625t-0.2548828125,4.07373046875q-0.017578125,0.421875-0.017578125,0.87890625t0.017578125,0.94921875q0.0087890625,0.17578125,0.0087890625,0.3427734375q0,0.7734375-0.1318359375,1.44140625q-0.123046875,0.2021484375-0.404296875,0.2548828125t-0.474609375,0.052734375q-0.4130859375,0-0.791015625-0.193359375l-0.0966796875-0.1142578125l-0.03515625-0.140625t-0.017578125-0.140625q0-1.2744140625,0.09228515625-2.56640625t0.20654296875-2.57958984375t0.24169921875-2.57080078125t0.21533203125-2.56640625q-0.5185546875,0.861328125-1.00634765625,1.75341796875t-0.91845703125,1.81494140625q-0.158203125,0.3603515625-0.30322265625,0.7734375t-0.34716796875,0.73828125q-0.10546875,0.158203125-0.35595703125,0.193359375t-0.43505859375,0.03515625q-0.17578125,0-0.36474609375-0.0615234375t-0.25927734375-0.263671875q-0.3251953125-0.9931640625-0.6943359375-1.9423828125t-0.7470703125-1.9248046875q0,0.650390625,0.0263671875,1.68310546875t0.0263671875,2.14013671875t-0.03515625,2.1181640625t-0.1669921875,1.599609375q-0.03515625,0.2197265625-0.28564453125,0.2724609375t-0.43505859375,0.052734375q-0.140625,0-0.26806640625-0.017578125t-0.25048828125-0.0703125z M177.30181640625,32.85546875q0-0.4130859375,0.02197265625-0.8173828125t0.07470703125-0.7998046875q0.03515625-0.2021484375,0.31201171875-0.2900390625t0.46142578125-0.087890625l0.2109375,0.017578125q0.2548828125,0.03515625,0.51416015625-0.03515625t0.51416015625-0.0703125q0.59765625,0,1.3359375,0.1318359375t1.38427734375,0.4482421875t1.08544921875,0.83056640625t0.439453125,1.27001953125t-0.45703125,1.41064453125t-1.1513671875,1.1513671875t-1.494140625,0.77783203125t-1.4677734375,0.28125q0.0703125,1.6962890625,0.19775390625,3.3662109375t0.43505859375,3.33984375l0.017578125,0.1142578125q0,0.123046875-0.10986328125,0.2021484375t-0.25927734375,0.12744140625t-0.30322265625,0.06591796875t-0.25048828125,0.017578125q-0.2197265625,0-0.53173828125-0.08349609375t-0.38232421875-0.32958984375q-0.2021484375-0.7734375-0.31640625-1.70068359375t-0.1669921875-1.93798828125t-0.07470703125-2.03466796875t-0.02197265625-1.99951171875l0-1.9775390625q0-0.3251953125-0.0087890625-0.6767578125t-0.0087890625-0.7119140625z M178.96294921875,31.431640625q0,1.2041015625,0.0263671875,2.40380859375t0.0615234375,2.40380859375q0.5185546875-0.10546875,1.05908203125-0.37353515625t0.9755859375-0.63720703125t0.703125-0.83935546875t0.26806640625-0.98876953125q0-0.4658203125-0.23291015625-0.8349609375t-0.60205078125-0.6328125q-0.3603515625-0.2548828125-0.8173828125-0.3955078125q-0.404296875-0.123046875-0.791015625-0.123046875l-0.0966796875,0z M185.45516601562,37.7861328125q0-0.5185546875,0.05712890625-1.2568359375t0.2109375-1.5380859375t0.4130859375-1.5908203125t0.66357421875-1.3974609375t0.966796875-0.9580078125q0.4658203125-0.2900390625,1.072265625-0.2900390625q0.123046875,0,0.2548828125,0.017578125q1.529296875,0.140625,2.35107421875,0.69873046875t1.19970703125,1.4150390625t0.439453125,1.951171875t0.0615234375,2.30712890625q0,0.9755859375-0.18017578125,2.12255859375t-0.63720703125,2.14013671875t-1.26123046875,1.65673828125t-2.04345703125,0.66357421875q-0.755859375,0-1.32275390625-0.27685546875t-0.96240234375-0.73828125t-0.650390625-1.072265625t-0.38671875-1.265625t-0.18896484375-1.32275390625t-0.05712890625-1.265625z M187.23934570312,37.390625q0,0.3779296875,0.0087890625,0.92724609375t0.07470703125,1.15576171875t0.17138671875,1.20849609375t0.31201171875,1.09423828125t0.52294921875,0.80859375t0.7646484375,0.333984375l0.0439453125,0q0.404296875,0,0.720703125-0.3076171875q0.333984375-0.3251953125,0.59326171875-0.7822265625t0.4482421875-0.96240234375t0.33837890625-0.86572265625l-0.03515625,0.0791015625q0.2548828125-0.80859375,0.3427734375-1.65673828125t0.087890625-1.67431640625q0-0.3955078125-0.052734375-0.95361328125t-0.17138671875-1.16455078125t-0.3076171875-1.19970703125t-0.47900390625-1.03271484375t-0.6767578125-0.66796875q-0.28125-0.1669921875-0.6240234375-0.17578125q-0.1318359375,0-0.263671875,0.0263671875q-0.4482421875,0.087890625-0.7646484375,0.439453125t-0.51416015625,0.86572265625t-0.30322265625,1.125t-0.16259765625,1.23046875t-0.06591796875,1.1865234375t-0.0087890625,0.96240234375z M191.20321289062,40.09765625l0-0.017578125l0,0.017578125z M194.96203125,31.958984375q0-0.4130859375,0.10107421875-0.60205078125t0.2900390625-0.263671875t0.45703125-0.05712890625t0.62841796875,0.017578125q0.9140625,0,1.845703125,0.28125t1.6787109375,0.82177734375t1.2041015625,1.33154296875t0.45703125,1.8193359375q0,0.685546875-0.19775390625,1.29638671875t-0.55810546875,1.142578125t-0.84375,0.97119140625t-1.0634765625,0.7646484375q0.2373046875,0.2373046875,0.615234375,0.83935546875t0.7470703125,1.283203125t0.65478515625,1.32275390625t0.33837890625,0.966796875l-0.10546875,0.158203125q-0.2373046875,0.140625-0.5712890625,0.1494140625q-0.158203125,0-0.4130859375-0.03955078125t-0.3251953125-0.23291015625q-0.3603515625-1.0107421875-0.78662109375-2.0830078125t-1.05029296875-1.93359375l0-0.017578125q-0.2197265625,0.087890625-0.43505859375,0.17138671875t-0.43505859375,0.15380859375q0.0703125,0.9755859375,0.14501953125,1.92041015625t0.07470703125,1.91162109375q0,0.123046875-0.11865234375,0.19775390625t-0.26806640625,0.11865234375t-0.30322265625,0.0615234375t-0.25048828125,0.017578125q-0.087890625,0-0.25048828125-0.017578125t-0.31201171875-0.0615234375t-0.25927734375-0.12744140625t-0.10986328125-0.22412109375q0-0.9755859375-0.0439453125-1.94677734375t-0.0966796875-1.93798828125q-0.2724609375-0.17578125-0.2724609375-0.45703125q0-0.2197265625,0.2109375-0.298828125q-0.10546875-1.8544921875-0.24169921875-3.7001953125t-0.13623046875-3.7177734375z M196.5528515625,31.6865234375q0.123046875,1.9072265625,0.27685546875,3.7705078125t0.29443359375,3.7705078125q0.615234375-0.17578125,1.14697265625-0.61083984375t0.91845703125-0.97998046875t0.60205078125-1.1865234375t0.21533203125-1.2744140625q0-0.703125-0.28125-1.34912109375t-0.7470703125-1.12939453125q-0.474609375-0.4833984375-1.08984375-0.755859375q-0.544921875-0.2373046875-1.142578125-0.2373046875l-0.158203125,0z M203.42299804687,43.876953125q0.03515625-1.8369140625,0.15380859375-3.6650390625t0.20654296875-3.6650390625q0.017578125-0.703125,0.017578125-1.27880859375t0.05712890625-0.99755859375t0.2109375-0.64599609375t0.51416015625-0.22412109375q0.3076171875,0,0.4658203125,0.087890625t0.24169921875,0.22412109375t0.10107421875,0.3076171875t0.017578125,0.34716796875q0,0.2548828125,0.017578125,0.50537109375t0.017578125,0.50537109375q0,1.8544921875-0.10107421875,3.7001953125t-0.10107421875,3.7177734375q0,0.2724609375,0.0087890625,0.54931640625t0.0087890625,0.56689453125q0,0.10546875-0.0966796875,0.17578125t-0.24169921875,0.11865234375t-0.3076171875,0.06591796875t-0.26806640625,0.017578125q-0.123046875,0-0.27685546875-0.017578125t-0.298828125-0.07470703125t-0.24609375-0.13623046875t-0.10107421875-0.1845703125z M203.91518554687,31.958984375q0-0.087890625,0.0263671875-0.19775390625t0.0615234375-0.19775390625q0.017578125-0.10546875,0.052734375-0.3603515625t0.12744140625-0.49658203125t0.2548828125-0.4306640625t0.46142578125-0.18896484375l0.1669921875,0q0.140625,0.03515625,0.28564453125,0.087890625t0.14501953125,0.2548828125q0,0.087890625-0.0087890625,0.1669921875t-0.0263671875,0.17578125q-0.0703125,0.5185546875-0.13623046875,0.8173828125t-0.15380859375,0.45263671875t-0.22412109375,0.19775390625t-0.34716796875,0.0615234375q-0.0703125,0-0.18896484375-0.0087890625t-0.228515625-0.0439453125t-0.18896484375-0.10986328125t-0.0791015625-0.18017578125z M207.30486328125,36.0107421875l0-0.6767578125l0-0.6943359375q0.0087890625-0.703125,0.05712890625-1.34912109375t0.13623046875-1.07666015625q0.052734375-0.2373046875,0.31640625-0.2900390625t0.45703125-0.052734375q0.3603515625,0,0.53173828125,0.087890625t0.22412109375,0.25048828125t0.0439453125,0.38671875t-0.0087890625,0.51416015625q0,0.4130859375-0.017578125,1.1513671875t-0.0263671875,1.634765625l0,0.4482421875q0,0.6767578125,0.017578125,1.3974609375q0.0263671875,0.966796875,0.10107421875,1.85009765625t0.20654296875,1.5908203125t0.369140625,1.08544921875q0.3779296875-0.3427734375,0.755859375-0.96240234375t0.720703125-1.39306640625t0.65478515625-1.63037109375t0.56689453125-1.67431640625t0.43505859375-1.5380859375t0.26806640625-1.2216796875q0.140625-0.720703125,0.18896484375-1.4677734375t0.04833984375-1.6611328125q0.2724609375-0.3251953125,0.421875-0.40869140625t0.474609375-0.08349609375q0.158203125,0,0.32080078125,0.0263671875t0.31201171875,0.123046875l0.123046875,0.193359375l0,0.2197265625q0,1.599609375-0.15380859375,3.24755859375t-0.3251953125,3.3134765625t-0.3251953125,3.33984375t-0.15380859375,3.32666015625q0,0.2548828125,0.02197265625,0.54052734375t0.09228515625,0.54052734375l-0.03515625,0.10546875q-0.123046875,0.2021484375-0.404296875,0.2548828125t-0.4833984375,0.052734375q-0.4306640625,0-0.64599609375-0.12744140625t-0.28564453125-0.3515625t-0.0615234375-0.5185546875t0.0087890625-0.63720703125q0-1.1865234375,0.10546875-2.41259765625t0.2548828125-2.41259765625q-0.140625,0.4130859375-0.333984375,0.99755859375t-0.45263671875,1.1689453125t-0.60205078125,1.072265625t-0.755859375,0.69873046875l0.017578125-0.017578125l-0.0703125,0.03515625l0.017578125,0q-0.2548828125,0.140625-0.47021484375,0.18896484375t-0.50537109375,0.04833984375q-0.580078125,0-0.96240234375-0.3427734375t-0.61962890625-0.88330078125t-0.3515625-1.212890625t-0.16259765625-1.34912109375t-0.04833984375-1.28759765625l0-1.00634765625q0-0.4833984375-0.0087890625-1.1513671875z M210.43376953125,43.0068359375q0.017578125,0,0.017578125-0.017578125l0.017578125,0q-0.017578125,0.017578125-0.03515625,0.017578125z M216.82051757812,42.576171875q-0.0087890625-0.263671875-0.0087890625-0.52734375q0-0.826171875,0.087890625-1.6611328125q0.10546875-1.107421875,0.140625-2.1796875q0.03515625-1.2568359375,0.10546875-2.6103515625q0.0439453125-0.73828125,0.0439453125-1.458984375q0-0.5888671875-0.0263671875-1.1689453125q0.087890625-0.2021484375,0.23291015625-0.2724609375t0.36474609375-0.0703125q0.10546875,0,0.22412109375,0.017578125t0.20654296875,0.087890625q0.123046875,0.017578125,0.30322265625,0.03515625t0.27685546875,0.10546875q0.03515625,0.052734375,0.18017578125,0.3603515625t0.3427734375,0.7470703125t0.4130859375,0.95361328125t0.4130859375,0.9755859375t0.3427734375,0.81298828125t0.18017578125,0.439453125q0.826171875-1.494140625,1.6171875-3.07177734375t1.7314453125-2.97509765625q0.087890625-0.123046875,0.30322265625-0.18017578125t0.35595703125-0.05712890625q0.3779296875,0,0.54931640625,0.18017578125t0.22412109375,0.46142578125q0.03515625,0.17578125,0.0439453125,0.3779296875q0.0087890625,0.10546875-0.0087890625,0.2197265625q-0.03515625,0.3251953125-0.03515625,0.615234375q0,2.0478515625-0.140625,4.06494140625t-0.2548828125,4.07373046875q-0.017578125,0.421875-0.017578125,0.87890625t0.017578125,0.94921875q0.0087890625,0.17578125,0.0087890625,0.3427734375q0,0.7734375-0.1318359375,1.44140625q-0.123046875,0.2021484375-0.404296875,0.2548828125t-0.474609375,0.052734375q-0.4130859375,0-0.791015625-0.193359375l-0.0966796875-0.1142578125l-0.03515625-0.140625t-0.017578125-0.140625q0-1.2744140625,0.09228515625-2.56640625t0.20654296875-2.57958984375t0.24169921875-2.57080078125t0.21533203125-2.56640625q-0.5185546875,0.861328125-1.00634765625,1.75341796875t-0.91845703125,1.81494140625q-0.158203125,0.3603515625-0.30322265625,0.7734375t-0.34716796875,0.73828125q-0.10546875,0.158203125-0.35595703125,0.193359375t-0.43505859375,0.03515625q-0.17578125,0-0.36474609375-0.0615234375t-0.25927734375-0.263671875q-0.3251953125-0.9931640625-0.6943359375-1.9423828125t-0.7470703125-1.9248046875q0,0.650390625,0.0263671875,1.68310546875t0.0263671875,2.14013671875t-0.03515625,2.1181640625t-0.1669921875,1.599609375q-0.03515625,0.2197265625-0.28564453125,0.2724609375t-0.43505859375,0.052734375q-0.140625,0-0.26806640625-0.017578125t-0.25048828125-0.0703125z"/></svg>
