<?xml version="1.0" encoding="UTF-8" standalone="no"?>
<svg xmlns="http://www.w3.org/2000/svg" width="143" height="200">
<path stroke="none" d="m 142.97352,126.54448 -16.42904,0 0,73.45552 -29.73526,0 -26.476605,-73.45552 -29.192153,0 0,73.45552 -24.983031,0 0,-73.45552 -16.157431,0 0,-15.75017 16.157431,0 0,-22.81059 -16.157431,0 0,-15.88602 16.157431,0 0,-72.0977 29.735262,0 26.06925,72.0977 29.599507,0 0,-72.0977 24.98303,0 0,72.0977 16.42904,0 0,15.88602 -16.42904,0 0,22.81059 16.42904,0 0,15.75017 z M 50.373418,72.0977 41.140462,46.84316 l 0,25.25454 9.232956,0 z m 51.188032,38.69661 0,-22.81059 -24.032564,0 8.68975,22.81059 15.342814,0 z m -37.067189,0 -8.010887,-22.81059 -15.342912,0 0,22.81059 23.353799,0 z m 37.067189,41.95518 0,-26.20501 -9.77597,0 9.77597,26.20501 z" />
</svg>